# AST/ASF file generated using VICON BodyLanguage
# -----------------------------------------------
:version 1.10
:name VICON
:units
  mass 1.0
  length 0.45
  angle deg
:documentation
   .ast/.asf automatically generated from VICON data using
   VICON BodyBuilder and BodyLanguage model FoxedUp or BRILLIANT.MOD
:root
   order TX TY TZ RX RY RZ
   axis XYZ
   position 0 0 0  
   orientation 0 0 0 
:bonedata
  begin
     id 1 
     name lhipjoint
     direction 0.660183 -0.676772 0.325788 
     length 2.75133 
     axis 0 0 0  XYZ
  end
  begin
     id 2 
     name lfemur
     direction 0.34202 -0.939693 0  
     length 7.70317  
     axis 0 0 20  XYZ
    dof rx ry rz
    limits (-160.0 20.0)
           (-70.0 70.0)
           (-60.0 70.0)
  end
  begin
     id 3 
     name ltibia
     direction 0.342105 -0.939662 0   
     length 7.18701   
     axis 0 0 20   XYZ
    dof rx
    limits (-10.0 170.0)
  end
  begin
     id 4 
     name lfoot
     direction 0.14163 -0.389126 0.910232   
     length 2.41719   
     axis -90 7.62852e-016 20   XYZ
    dof rx rz
    limits (-45.0 90.0)
           (-70.0 20.0)
  end
  begin
     id 5 
     name ltoes
     direction 1.53533e-011 -4.21926e-011 1   
     length 1.18611   
     axis -90 7.62852e-016 20   XYZ
    dof rx
    limits (-90.0 20.0)
  end
  begin
     id 6 
     name rhipjoint
     direction -0.6658 -0.67229 0.323631   
     length 2.76968  
     axis 0 0 0  XYZ 
  end
  begin
     id 7 
     name rfemur
     direction -0.34202 -0.939693 0   
     length 7.92547   
     axis 0 0 -20   XYZ
    dof rx ry rz
    limits (-160.0 20.0)
           (-70.0 70.0)
           (-70.0 60.0)
  end
  begin
     id 8 
     name rtibia
     direction -0.342022 -0.939692 0   
     length 7.22641   
     axis 0 0 -20   XYZ
    dof rx
    limits (-10.0 170.0)
 end
 begin
     id 9 
     name rfoot
     direction -0.105675 -0.29034 0.951071   
     length 2.48149  
     axis -90 -7.62852e-016 -20   XYZ
    dof rx rz
    limits (-45.0 90.0)
           (-20.0 70.0)
  end
  begin
     id 10 
     name rtoes
     direction -1.5349e-011 -4.21859e-011 1   
     length 1.23343   
     axis -90 -7.62852e-016 -20   XYZ
    dof rx
    limits (-90.0 20.0)
  end
  begin
     id 11 
     name lowerback
     direction 0.0104173 0.993624 -0.112266   
     length 2.00527   
     axis 0 0 0   XYZ
    dof rx ry rz
    limits (-20.0 45.0)
           (-30.0 30.0)
           (-30.0 30.0)
  end
  begin
     id 12 
     name upperback
     direction 0.00733149 0.999856 -0.0152913   
     length 2.01385   
     axis 0 0 0   XYZ
    dof rx ry rz
    limits (-20.0 45.0)
           (-30.0 30.0)
           (-30.0 30.0)
  end
  begin
     id 13 
     name thorax
     direction 0.0026304 0.999318 0.036841   
     length 2.03734   
     axis 0 0 0   XYZ
    dof rx ry rz
    limits (-20.0 45.0)
           (-30.0 30.0)
           (-30.0 30.0)
  end
  begin
     id 14 
     name lowerneck
     direction 0.0293154 0.998757 0.0403082   
     length 1.65303   
     axis 0 0 0   XYZ
    dof rx ry rz
    limits (-20.0 45.0)
           (-30.0 30.0)
           (-30.0 30.0)
  end
  begin
     id 15 
     name upperneck
     direction -0.0376619 0.998184 -0.0470083   
     length 1.60926   
     axis 0 0 0   XYZ
    dof rx ry rz
    limits (-20.0 45.0)
           (-30.0 30.0)
           (-30.0 30.0)
  end
  begin
     id 16
     name head
     direction -0.0170133 0.999635 -0.0209778  
     length 1.73625  
     axis 0 0 0   XYZ
    dof rx ry rz
    limits (-20.0 45.0)
           (-30.0 30.0)
           (-30.0 30.0)
  end
  begin
     id 17 
     name lclavicle
     direction 0.919857 0.39181 -0.0186333  
     length 3.75313  
     axis 0 0 0   XYZ
    dof ry rz
    limits (-20.0 10.0)
           (0.0 20.0)
  end
  begin
     id 18 
     name lhumerus
     direction 1 -4.48988e-011 1.44029e-027   
     length 5.49313   
     axis 180 -30 -90   XYZ
    dof rx ry rz
    limits (-60.0 90.0)
           (-90.0 90.0)
           (-90.0 90.0)
  end
  begin
     id 19
     name lradius
     direction 1 -4.48924e-011 7.46281e-027   
     length 3.29037   
     axis 180 -30 -90   XYZ
    dof rx
    limits (-10.0 170.0)
  end
  begin
     id 20
     name lwrist
     direction 1 -4.48955e-011 2.19879e-026   
     length 1.64519   
     axis -1.34358e-014 90 90   XYZ
    dof ry
    limits (-180.0 0.0)
 end
  begin
     id 21 
     name lhand
     direction 1 -4.48978e-011 4.39747e-026   
     length 0.729656   
     axis -2.80598e-014 90 90   XYZ
    dof rx rz
    limits (-90.0 90.0)
           (-45.0 45.0)
  end
  begin
     id 22 
     name lfingers
     direction 1 -4.49071e-011 8.79411e-026   
     length 0.588268   
     axis -5.61193e-014 90 90   XYZ
    dof rx
    limits (0.0 90.0)
  end
  begin
     id 23
     name lthumb
     direction 0.707107 -6.34817e-011 0.707107   
     length 0.844638   
     axis -90 45 -9.86923e-015   XYZ
    dof rx rz
    limits (-45.0 45.0)
           (-45.0 45.0)
  end
  begin
     id 24 
     name rclavicle
     direction -0.919898 0.388279 0.0550233   
     length 3.7171  
     axis 0 0 0   XYZ 
    dof ry rz
    limits (-10.0 20.0)
           (-20.0 0.0)
  end
  begin
     id 25 
     name rhumerus
     direction -1 -4.48968e-011 9.98372e-028  
     length 5.23684   
     axis 180 30 90   XYZ
    dof rx ry rz
    limits (-90.0 60.0)
           (-90.0 90.0)
           (-90.0 90.0)
  end
  begin
     id 26 
     name rradius
     direction -1 -4.48956e-011 1.01023e-026   
     length 3.38251   
     axis 180 30 90   XYZ
    dof rx
    limits (-10.0 170.0)
  end
  begin
     id 27 
     name rwrist
     direction -1 -4.4892e-011 2.19886e-026   
     length 1.69126   
     axis -1.34358e-014 -90 -90   XYZ
    dof ry
    limits (-180.0 0.0)
  end
  begin
     id 28
     name rhand
     direction -1 -4.49024e-011 4.39727e-026   
     length 0.691454   
     axis -2.80598e-014 -90 -90   XYZ
    dof rx rz
    limits (-90.0 90.0)
           (-45.0 45.0)
  end
  begin
     id 29
     name rfingers
     direction -1 -4.49097e-011 8.79388e-026   
     length 0.557468   
     axis -5.61193e-014 -90 -90   XYZ
    dof rx
    limits (0.0 90.0)
  end
  begin
     id 30
     name rthumb
     direction -0.707107 -6.34938e-011 0.707107   
     length 0.800416   
     axis -90 -45 9.86923e-015   XYZ
    dof rx rz
    limits (-45.0 45.0)
           (-45.0 45.0)
  end
:hierarchy
  begin
    root lhipjoint rhipjoint lowerback
    lhipjoint lfemur
    lfemur ltibia
    ltibia lfoot
    lfoot ltoes
    rhipjoint rfemur
    rfemur rtibia
    rtibia rfoot
    rfoot rtoes
    lowerback upperback
    upperback thorax
    thorax lowerneck lclavicle rclavicle
    lowerneck upperneck
    upperneck head
    lclavicle lhumerus
    lhumerus lradius
    lradius lwrist
    lwrist lhand lthumb
    lhand lfingers
    rclavicle rhumerus
    rhumerus rradius
    rradius rwrist
    rwrist rhand rthumb
    rhand rfingers
  end

#!OML:ASF H:\BabyWalks\Project 1\Capture day 1\Session 1\baby.ASF
:FULLY-SPECIFIED
:DEGREES
325
root -32.4033 17.2275 -0.27314 -96.7909 70.7903 -120.528
lowerback 22.1703 1.13384 -7.31272
upperback 5.26982 0.15929 -0.814007
thorax -6.57615 0.326322 3.22777
lowerneck -2.30946 -2.9922 4.59439
upperneck -19.1807 -1.42284 11.1654
head -5.37944 -1.32955 2.77324
rclavicle -4.45278e-014 9.54166e-015
rhumerus -76.15 56.1564 -113.836
rradius 81.1426
rwrist 26.8779
rhand -27.0895 23.8585
rfingers 7.12502
rthumb -0.506576 -6.12059
lclavicle -4.45278e-014 9.54166e-015
lhumerus -90.4282 -64.3067 131.152
lradius 88.0558
lwrist -0.848203
lhand -13.6378 -22.9424
lfingers 7.12502
lthumb 12.4783 6.66502
rfemur -41.0759 -11.1722 50.8304
rtibia 26.571
rfoot -12.407 -1.03675
rtoes 16.3577
lfemur -47.8187 4.45333 15.3769
ltibia 37.763
lfoot -18.3891 -0.262329
ltoes 17.2164
326
root -32.3844 17.2411 -0.278987 -97.4582 70.985 -120.814
lowerback 22.0011 1.1317 -7.14552
upperback 5.24749 0.205191 -0.789616
thorax -6.51934 0.343415 3.14713
lowerneck -2.33659 -3.04653 4.55053
upperneck -19.0903 -1.53956 11.0314
head -5.34212 -1.37449 2.74004
rclavicle -1.27222e-014 2.22639e-014
rhumerus -76.0838 56.1292 -113.852
rradius 81.0387
rwrist 26.7511
rhand -26.9935 23.6238
rfingers 7.12502
rthumb -0.413809 -6.35551
lclavicle -1.27222e-014 2.22639e-014
lhumerus -89.4054 -64.211 130.251
lradius 87.7176
lwrist -0.921619
lhand -13.2346 -22.8945
lfingers 7.12502
lthumb 12.8671 6.68891
rfemur -40.5838 -11.1888 50.3633
rtibia 26.5435
rfoot -12.5089 -1.39336
rtoes 16.0409
lfemur -47.268 3.99628 15.2034
ltibia 37.5163
lfoot -18.4996 -0.110703
ltoes 17.0223
327
root -32.3645 17.2558 -0.28668 -98.1445 71.1916 -121.093
lowerback 21.8349 1.12067 -6.96608
upperback 5.22793 0.242083 -0.759291
thorax -6.45984 0.356022 3.06859
lowerneck -2.35168 -3.08889 4.49742
upperneck -18.9986 -1.64339 10.8743
head -5.30705 -1.41204 2.70077
rclavicle 4.77083e-015 -5.08889e-014
rhumerus -76.0215 56.1214 -113.887
rradius 80.9307
rwrist 26.6356
rhand -26.8706 23.3939
rfingers 7.12502
rthumb -0.295072 -6.58561
lclavicle 4.77083e-015 -5.08889e-014
lhumerus -88.3231 -64.0667 129.273
lradius 87.371
lwrist -1.01946
lhand -12.8203 -22.8448
lfingers 7.12502
lthumb 13.2665 6.71299
rfemur -40.0579 -11.239 49.8874
rtibia 26.5045
rfoot -12.6058 -1.73321
rtoes 15.7049
lfemur -46.686 3.55466 14.9875
ltibia 37.2688
lfoot -18.6152 0.0406697
ltoes 16.8354
328
root -32.3438 17.2714 -0.296227 -98.8375 71.4114 -121.357
lowerback 21.6646 1.10143 -6.77201
upperback 5.21118 0.271652 -0.724948
thorax -6.39414 0.364785 2.98819
lowerneck -2.34887 -3.12567 4.42703
upperneck -18.9042 -1.74212 10.703
head -5.27421 -1.44628 2.65991
rclavicle 2.70347e-014 -3.18055e-015
rhumerus -75.9505 56.1252 -113.931
rradius 80.8195
rwrist 26.5245
rhand -26.6669 23.2069
rfingers 7.12502
rthumb -0.0983333 -6.77285
lclavicle 2.70347e-014 -3.18055e-015
lhumerus -87.1799 -63.8888 128.228
lradius 87.0084
lwrist -1.1281
lhand -12.3983 -22.7846
lfingers 7.12502
lthumb 13.6732 6.7463
rfemur -39.5047 -11.3271 49.4073
rtibia 26.4559
rfoot -12.6826 -2.05649
rtoes 15.3706
lfemur -46.0764 3.12011 14.735
ltibia 37.024
lfoot -18.7523 0.204661
ltoes 16.6144
329
root -32.322 17.2883 -0.307381 -99.5552 71.6443 -121.623
lowerback 21.4911 1.07403 -6.56903
upperback 5.1981 0.292781 -0.68498
thorax -6.32165 0.369267 2.91118
lowerneck -2.31834 -3.15676 4.34075
upperneck -18.8116 -1.83572 10.5102
head -5.24685 -1.47749 2.61527
rclavicle 1.27222e-014 6.36111e-015
rhumerus -75.865 56.1328 -113.975
rradius 80.7071
rwrist 26.4192
rhand -26.4438 23.0143
rfingers 7.12502
rthumb 0.117123 -6.96544
lclavicle 1.27222e-014 6.36111e-015
lhumerus -85.9981 -63.6735 127.129
lradius 86.6405
lwrist -1.25395
lhand -11.9586 -22.7011
lfingers 7.12502
lthumb 14.0969 6.80073
rfemur -38.9221 -11.4588 48.9211
rtibia 26.3983
rfoot -12.7431 -2.35035
rtoes 15.0446
lfemur -45.4386 2.67992 14.4483
ltibia 36.7841
lfoot -18.9158 0.391051
ltoes 16.352
330
root -32.2993 17.3063 -0.32031 -100.291 71.8898 -121.885
lowerback 21.3077 1.04071 -6.35108
upperback 5.19034 0.31001 -0.641625
thorax -6.23758 0.371446 2.83044
lowerneck -2.25233 -3.187 4.24261
upperneck -18.7312 -1.93006 10.2903
head -5.22948 -1.50905 2.56495
rclavicle -2.38542e-014 -3.02153e-014
rhumerus -75.7433 56.1269 -113.998
rradius 80.5919
rwrist 26.3176
rhand -26.2102 22.814
rfingers 7.12502
rthumb 0.342743 -7.1655
lclavicle -2.38542e-014 -3.02153e-014
lhumerus -84.7849 -63.4456 125.997
lradius 86.2667
lwrist -1.37852
lhand -11.5142 -22.6005
lfingers 7.12502
lthumb 14.5252 6.87099
rfemur -38.3126 -11.6397 48.4321
rtibia 26.3311
rfoot -12.7896 -2.59355
rtoes 14.7194
lfemur -44.7755 2.23387 14.1282
ltibia 36.5526
lfoot -19.1085 0.604552
ltoes 16.0261
